<svg width="24" height="24" viewBox="0 0 24 24" fill="none" xmlns="http://www.w3.org/2000/svg">
  <path d="M12 15C13.6569 15 15 13.6569 15 12C15 10.3431 13.6569 9 12 9C10.3431 9 9 10.3431 9 12C9 13.6569 10.3431 15 12 15Z" stroke="#3B82F6" stroke-width="2" stroke-linecap="round" stroke-linejoin="round"/>
  <path d="M19.4 15.9C19.2669 16.1937 19.2272 16.5211 19.286 16.839C19.3448 17.1569 19.4995 17.4513 19.73 17.68L19.79 17.74C19.976 17.926 20.1235 18.1465 20.2241 18.3882C20.3247 18.6299 20.3766 18.889 20.3766 19.151C20.3766 19.413 20.3247 19.6721 20.2241 19.9138C20.1235 20.1555 19.976 20.376 19.79 20.562C19.604 20.748 19.3835 20.8955 19.1418 20.9961C18.9001 21.0967 18.641 21.1486 18.379 21.1486C18.117 21.1486 17.8579 21.0967 17.6162 20.9961C17.3745 20.8955 17.154 20.748 16.968 20.562L16.908 20.502C16.6793 20.2715 16.3849 20.1168 16.067 20.058C15.7491 19.9992 15.4217 20.0389 15.128 20.172C14.8408 20.2989 14.5987 20.5044 14.4289 20.7648C14.2591 21.0251 14.1695 21.329 14.171 21.639V21.799C14.171 22.3294 13.9603 22.8382 13.5852 23.2133C13.2102 23.5884 12.7014 23.799 12.171 23.799C11.6406 23.799 11.1318 23.5884 10.7568 23.2133C10.3817 22.8382 10.171 22.3294 10.171 21.799V21.709C10.1651 21.3831 10.0639 21.0743 9.8799 20.813C9.6959 20.5517 9.4375 20.352 9.14 20.239C8.84627 20.1059 8.51886 20.0662 8.20095 20.125C7.88304 20.1838 7.58861 20.3385 7.36 20.569L7.3 20.629C7.11405 20.815 6.89355 20.9625 6.65188 21.0631C6.41021 21.1637 6.15106 21.2156 5.889 21.2156C5.62694 21.2156 5.36779 21.1637 5.12612 21.0631C4.88445 20.9625 4.66395 20.815 4.478 20.629C4.29204 20.443 4.1446 20.2225 4.04398 19.9809C3.94336 19.7392 3.89148 19.4801 3.89148 19.218C3.89148 18.956 3.94336 18.6968 4.04398 18.4552C4.1446 18.2135 4.29204 17.993 4.478 17.807L4.538 17.747C4.76847 17.5184 4.92316 17.224 4.982 16.906C5.04085 16.5881 5.00113 16.2607 4.868 15.967C4.74113 15.6798 4.53563 15.4377 4.27525 15.2679C4.01487 15.0981 3.71091 15.0085 3.401 15.01H3.241C2.71057 15.01 2.2018 14.7993 1.82675 14.4243C1.4517 14.0493 1.241 13.5405 1.241 13.01C1.241 12.4796 1.4517 11.9708 1.82675 11.5958C2.2018 11.2207 2.71057 11.01 3.241 11.01H3.331C3.65691 11.0041 3.96566 10.9029 4.227 10.719C4.48834 10.535 4.68802 10.2766 4.801 9.97902C4.93413 9.68529 4.97385 9.35788 4.915 9.03997C4.85615 8.72206 4.70147 8.42763 4.471 8.19902L4.411 8.13902C4.22504 7.95307 4.0776 7.73257 3.97698 7.4909C3.87636 7.24923 3.82448 6.99008 3.82448 6.72802C3.82448 6.46596 3.87636 6.20681 3.97698 5.96514C4.0776 5.72347 4.22504 5.50297 4.411 5.31702C4.59695 5.13106 4.81745 4.98362 5.05912 4.883C5.30079 4.78238 5.55994 4.7305 5.822 4.7305C6.08406 4.7305 6.34321 4.78238 6.58488 4.883C6.82655 4.98362 7.04705 5.13106 7.233 5.31702L7.293 5.37702C7.52157 5.60749 7.816 5.76218 8.134 5.82103C8.45191 5.87988 8.77932 5.84016 9.073 5.70702H9.101C9.38825 5.58016 9.63034 5.37466 9.80014 5.11428C9.96994 4.8539 10.0595 4.54994 10.058 4.24002V4.08002C10.058 3.54959 10.2687 3.04082 10.6438 2.66578C11.0188 2.29073 11.5276 2.08002 12.058 2.08002C12.5884 2.08002 13.0972 2.29073 13.4723 2.66578C13.8473 3.04082 14.058 3.54959 14.058 4.08002V4.17002C14.0595 4.47994 14.1491 4.7839 14.3189 5.04428C14.4887 5.30466 14.7308 5.51016 15.019 5.63702C15.3127 5.77016 15.6401 5.80988 15.958 5.75103C16.276 5.69218 16.5704 5.53749 16.799 5.30702L16.859 5.24702C17.045 5.06106 17.2655 4.91362 17.5071 4.813C17.7488 4.71238 18.0079 4.6605 18.27 4.6605C18.5321 4.6605 18.7912 4.71238 19.0329 4.813C19.2746 4.91362 19.495 5.06106 19.681 5.24702C19.867 5.43297 20.0144 5.65347 20.115 5.89514C20.2156 6.13681 20.2675 6.39596 20.2675 6.65802C20.2675 6.92008 20.2156 7.17923 20.115 7.4209C20.0144 7.66257 19.867 7.88307 19.681 8.06902L19.621 8.12902C19.3905 8.35759 19.2358 8.65202 19.177 8.96993C19.1181 9.28784 19.1578 9.61525 19.291 9.90902V9.93702C19.4179 10.2243 19.6234 10.4664 19.8837 10.6362C20.1441 10.806 20.448 10.8956 20.758 10.894H20.918C21.4484 10.894 21.9572 11.1047 22.3323 11.4798C22.7073 11.8548 22.918 12.3636 22.918 12.894C22.918 13.4245 22.7073 13.9332 22.3323 14.3083C21.9572 14.6833 21.4484 14.894 20.918 14.894H20.828C20.518 14.8956 20.2141 14.9852 19.9537 15.155C19.6934 15.3248 19.4879 15.5669 19.361 15.854V15.854" stroke="#3B82F6" stroke-width="2" stroke-linecap="round" stroke-linejoin="round"/>
</svg> 